<svg fill="#000000" height="200px" width="200px" version="1.1" id="Layer_1" xmlns="http://www.w3.org/2000/svg" xmlns:xlink="http://www.w3.org/1999/xlink" viewBox="0 0 511.999 511.999" xml:space="preserve"><g id="SVGRepo_bgCarrier" stroke-width="0"></g><g id="SVGRepo_tracerCarrier" stroke-linecap="round" stroke-linejoin="round"></g><g id="SVGRepo_iconCarrier"> <g> <g> <circle cx="196.776" cy="230.721" r="17.765"></circle> </g> </g> <g> <g> <circle cx="315.211" cy="230.721" r="17.765"></circle> </g> </g> <g> <g> <path d="M340.126,174.684c-1.515-4.667-6.532-7.221-11.192-5.704c-8.987,2.919-18.473,2.922-27.432,0.005 c-4.662-1.518-9.678,1.03-11.197,5.697c-1.518,4.664,1.032,9.677,5.697,11.196c6.277,2.044,12.735,3.065,19.198,3.065 c6.464,0,12.933-1.022,19.223-3.066C339.088,184.36,341.643,179.349,340.126,174.684z"></path> </g> </g> <g> <g> <path d="M221.69,174.684c-1.514-4.667-6.529-7.221-11.191-5.704c-8.987,2.919-18.473,2.921-27.433,0.005 c-4.664-1.52-9.677,1.032-11.197,5.697c-1.518,4.664,1.033,9.677,5.697,11.196c6.277,2.044,12.735,3.065,19.198,3.065 s12.932-1.022,19.223-3.066C220.653,184.36,223.207,179.349,221.69,174.684z"></path> </g> </g> <g> <g> <path d="M269.025,257.365h-26.056c-4.906,0-8.883,3.977-8.883,8.883c0,4.906,3.977,8.883,8.883,8.883h26.056 c4.907,0,8.883-3.977,8.883-8.883C277.908,261.342,273.932,257.365,269.025,257.365z"></path> </g> </g> <g> <g> <path d="M484.322,187.55c-9.792-10.149-22.373-16.51-36.077-18.402c-1.904-38.74-17.127-76.165-43.358-106.183 C377.296,31.391,338.802,9.32,296.492,0.816c-12.173-2.444-24.672,0.662-34.28,8.53c-2.317,1.897-4.395,4.015-6.214,6.309 c-1.819-2.294-3.898-4.412-6.214-6.309c-9.606-7.868-22.097-10.974-34.281-8.53c-42.31,8.504-80.805,30.575-108.395,62.148 C80.878,92.982,65.654,130.407,63.75,169.147c-13.703,1.894-26.285,8.254-36.076,18.402 c-11.822,12.254-17.997,28.393-17.386,45.444c1.064,29.681,23.756,54.679,52.662,59.17v1.033 c0,44.184,17.206,85.723,48.449,116.966l25.148,25.148c-1.276,3.448-2.401,6.958-3.374,10.523 c-0.013,0.049-0.03,0.097-0.043,0.146c-0.007,0.026-0.017,0.052-0.024,0.079c-0.02,0.076-0.031,0.153-0.05,0.229 c-0.049,0.198-0.095,0.396-0.129,0.595c-0.019,0.108-0.03,0.217-0.044,0.325c-0.024,0.179-0.047,0.358-0.06,0.535 c-0.009,0.136-0.011,0.271-0.014,0.407c-0.004,0.148-0.009,0.297-0.006,0.444c0.004,0.157,0.017,0.315,0.028,0.471 c0.009,0.126,0.018,0.252,0.032,0.377c0.02,0.166,0.049,0.329,0.078,0.493c0.021,0.117,0.04,0.234,0.065,0.351 c0.036,0.159,0.078,0.315,0.122,0.473c0.033,0.121,0.065,0.242,0.104,0.36c0.046,0.142,0.101,0.283,0.154,0.423 c0.05,0.13,0.098,0.261,0.154,0.388c0.053,0.123,0.114,0.243,0.173,0.362c0.069,0.14,0.136,0.278,0.212,0.415 c0.058,0.105,0.123,0.207,0.186,0.31c0.088,0.142,0.174,0.284,0.269,0.422c0.065,0.095,0.136,0.185,0.205,0.277 c0.102,0.136,0.205,0.272,0.315,0.403c0.079,0.094,0.163,0.182,0.246,0.272c0.109,0.118,0.217,0.237,0.333,0.349 c0.103,0.101,0.213,0.197,0.323,0.293c0.104,0.092,0.206,0.185,0.315,0.272c0.137,0.11,0.282,0.213,0.428,0.315 c0.091,0.065,0.179,0.131,0.272,0.193c0.168,0.11,0.345,0.21,0.522,0.309c0.069,0.038,0.131,0.083,0.2,0.12 c0.03,0.015,0.06,0.031,0.09,0.046c0.027,0.014,0.056,0.028,0.083,0.043c0.931,0.489,1.874,0.959,2.812,1.438v24.031 c0,4.906,3.977,8.883,8.883,8.883c4.906,0,8.883-3.977,8.883-8.883v-15.82c4.878,2.028,9.818,3.895,14.804,5.609 c0.981,0.338,1.96,0.681,2.944,1.005c0.002,0.306,0.017,0.61,0.017,0.915c0,6.174-0.437,12.436-1.299,18.612 c-0.058,0.418-0.086,0.833-0.086,1.242c0.001,4.36,3.214,8.164,7.656,8.783c0.417,0.058,0.83,0.086,1.239,0.086 c4.361,0,8.166-3.213,8.785-7.656c0.976-6.986,1.471-14.075,1.471-21.068c0-14.983-2.198-29.8-6.534-44.04 c-1.43-4.692-6.391-7.341-11.084-5.91c-1.183,0.36-2.217,0.965-3.108,1.715c-1.992,1.676-3.191,4.15-3.189,6.782 c0,0.856,0.124,1.727,0.387,2.589c1.096,3.598,2.018,7.241,2.802,10.915c0.544,2.546,1.022,5.107,1.415,7.683 c-0.473-0.173-0.944-0.346-1.415-0.522c-7.031-2.626-13.948-5.592-20.703-8.883c4.547-13.224,11.598-25.436,20.703-35.979 c4.994-5.783,10.595-11.068,16.743-15.735c2.512,1.075,5.041,2.095,7.589,3.039l-6.927,6.927c-3.469,3.469-3.469,9.093,0,12.561 l17.676,17.676c-5.425,8.056-4.578,19.109,2.542,26.228l36.397,36.397v8.165c0,4.906,3.977,8.883,8.883,8.883 c4.907,0,8.883-3.977,8.883-8.883v-11.838v-0.012v-86.09c9.615-0.487,19.182-1.754,28.544-3.798 c0.605-0.133,1.206-0.29,1.808-0.43l7.421,7.42l-17.406,17.406c-3.469,3.469-3.469,9.093,0,12.561l3.469,3.469 c1.156,1.155,1.156,3.033,0,4.188l-9.193,9.193c-3.469,3.469-3.469,9.093,0.001,12.562c1.734,1.734,4.007,2.601,6.281,2.601 c2.273,0,4.547-0.867,6.282-2.602l9.193-9.193c7.119-7.119,7.966-18.173,2.542-26.228l17.677-17.676 c3.469-3.469,3.469-9.093,0-12.561l-6.927-6.927c2.549-0.944,5.077-1.962,7.589-3.039c6.148,4.668,11.749,9.953,16.743,15.738 c9.104,10.542,16.154,22.752,20.701,35.977c-6.755,3.291-13.672,6.258-20.701,8.883c-0.471,0.175-0.943,0.348-1.415,0.521 c0.394-2.575,0.872-5.135,1.415-7.682c0.785-3.674,1.707-7.319,2.802-10.917c0.263-0.862,0.387-1.732,0.387-2.589 c0.001-2.632-1.197-5.106-3.189-6.782c-0.891-0.748-1.925-1.355-3.108-1.715c-4.694-1.428-9.656,1.217-11.084,5.911 c-4.335,14.241-6.534,29.058-6.534,44.039c0,6.99,0.495,14.079,1.471,21.068c0.619,4.441,4.425,7.656,8.785,7.656 c0.41,0,0.823-0.028,1.24-0.086c4.441-0.619,7.654-4.423,7.656-8.783c0-0.41-0.027-0.824-0.086-1.242 c-0.863-6.179-1.3-12.44-1.3-18.612c0-0.306,0.014-0.61,0.017-0.916c0.984-0.324,1.964-0.668,2.944-1.005 c4.985-1.714,9.926-3.581,14.804-5.609v15.82c0,4.906,3.976,8.883,8.883,8.883s8.883-3.977,8.883-8.883v-24.033 c0.936-0.477,1.876-0.946,2.807-1.435c0.03-0.015,0.06-0.031,0.091-0.046c0.028-0.014,0.057-0.028,0.084-0.043 c0.066-0.036,0.127-0.077,0.192-0.114c0.181-0.101,0.361-0.204,0.533-0.316c0.091-0.06,0.179-0.126,0.268-0.19 c0.147-0.104,0.294-0.207,0.432-0.319c0.108-0.086,0.21-0.18,0.314-0.271c0.109-0.096,0.219-0.192,0.323-0.293 c0.116-0.114,0.225-0.232,0.334-0.352c0.082-0.089,0.166-0.178,0.244-0.27c0.111-0.131,0.216-0.27,0.319-0.407 c0.068-0.09,0.136-0.179,0.2-0.271c0.097-0.141,0.187-0.285,0.276-0.432c0.06-0.099,0.123-0.198,0.179-0.298 c0.078-0.14,0.148-0.283,0.218-0.426c0.057-0.116,0.115-0.231,0.166-0.349c0.058-0.133,0.109-0.27,0.161-0.405 c0.051-0.134,0.102-0.268,0.147-0.404c0.041-0.127,0.075-0.255,0.111-0.384c0.041-0.149,0.083-0.297,0.116-0.449 c0.027-0.124,0.049-0.252,0.071-0.378c0.027-0.154,0.054-0.309,0.073-0.464c0.017-0.135,0.025-0.272,0.036-0.409 c0.011-0.147,0.024-0.293,0.027-0.439c0.004-0.159-0.001-0.317-0.006-0.477c-0.004-0.126-0.005-0.25-0.013-0.375 c-0.013-0.188-0.038-0.377-0.064-0.566c-0.013-0.098-0.023-0.197-0.04-0.295c-0.037-0.21-0.085-0.419-0.137-0.629 c-0.017-0.066-0.025-0.133-0.044-0.199c-0.006-0.023-0.014-0.045-0.02-0.069c-0.015-0.057-0.034-0.111-0.05-0.167 c-0.87-3.187-1.876-6.327-2.989-9.421l25.86-26.62c30.157-31.045,46.765-71.977,46.765-115.258v-2.276 c29.187-4.24,52.183-29.369,53.255-59.252C502.32,215.943,496.145,199.803,484.322,187.55z M69.546,275.039 c-22.467-1.418-40.698-20.166-41.505-42.681c-0.437-12.189,3.972-23.721,12.417-32.474c8.449-8.757,19.801-13.58,31.967-13.58 c4.701,0,9.331,0.734,13.768,2.185c0.126,0.041,0.657,0.223,2.201,0.825c3.2,1.252,5.35,4.412,5.35,7.862v6.893H72.424 c-14.694,0-26.648,11.954-26.648,26.648c0,4.906,3.977,8.883,8.883,8.883c4.906,0,8.883-3.977,8.883-8.883 c0-4.898,3.984-8.883,8.883-8.883h21.318v47.901c-0.275,0.11-0.546,0.234-0.815,0.374 C85.764,273.849,77.682,275.553,69.546,275.039z M289.632,384.022c-10.999,2.402-22.315,3.621-33.634,3.621 c-4.111,0-7.56,2.796-8.572,6.589c-0.195,0.733-0.31,1.499-0.31,2.294v73.303l-23.835-23.835c-1.155-1.155-1.155-3.033,0-4.188 l3.469-3.469c3.469-3.469,3.469-9.093,0-12.561l-17.406-17.406l7.421-7.421c0.604,0.14,1.204,0.298,1.81,0.43 c0.638,0.14,1.276,0.206,1.903,0.206c4.085,0,7.762-2.835,8.669-6.989c0.411-1.883,0.185-3.752-0.523-5.397 c-1.094-2.542-3.349-4.541-6.259-5.177c-26.417-5.769-51.604-19.503-72.838-39.716c-10.263-9.77-14.911-24.116-12.433-38.376 l20.413-117.447c2.992-17.213,12.704-31.941,27.348-41.469c14.646-9.528,32.046-12.44,48.932-8.221l19.999,5.147 c0.004,0.001,0.007,0.001,0.011,0.002c0.36,0.092,0.728,0.16,1.1,0.205c0.37,0.044,0.739,0.065,1.105,0.065 c0.368,0,0.74-0.021,1.112-0.066c0.291-0.036,0.577-0.097,0.862-0.161c0.079-0.018,0.159-0.024,0.238-0.045l0.007-0.002 l19.932-5.131c16.946-4.24,34.347-1.323,48.992,8.205c14.644,9.529,24.356,24.255,27.348,41.469l20.413,117.447 c2.479,14.262-2.169,28.607-12.432,38.376C341.237,364.52,316.048,378.253,289.632,384.022z M430.688,294.521L430.688,294.521 c0,38.632-14.826,75.169-41.743,102.879l-20.932,21.548c-7.248-13.394-16.877-25.441-28.435-35.516 c12.471-7.134,24.29-15.927,35.142-26.257c14.572-13.87,21.184-34.165,17.688-54.286l-20.413-117.447 c-3.791-21.811-16.606-41.244-35.161-53.317c-18.555-12.073-41.515-15.918-63.05-10.535l-17.785,4.578l-17.844-4.593 c-21.477-5.371-44.435-1.524-62.989,10.549c-18.555,12.073-31.371,31.507-35.162,53.318L119.589,302.89 c-3.497,20.121,3.115,40.416,17.687,54.286c10.853,10.331,22.671,19.122,35.142,26.257c-11.313,9.861-20.772,21.611-27.965,34.661 l-20.493-20.493c-27.887-27.888-43.245-64.966-43.245-104.403v-0.872c4.446-0.598,8.816-1.662,13.028-3.2v12.766 c0,4.906,3.977,8.883,8.883,8.883c4.906,0,8.883-3.977,8.883-8.883v-88.939v-15.775c0-10.871-6.532-20.451-16.645-24.407 c-1.48-0.578-2.456-0.939-3.156-1.168c-3.32-1.085-6.719-1.875-10.166-2.384c3.981-72.76,60.554-135.527,137.463-150.985 c6.94-1.393,14.053,0.377,19.524,4.857c5.457,4.47,8.588,11.08,8.588,18.133v33.162c0,4.906,3.977,8.883,8.883,8.883 c4.907,0,8.883-3.977,8.883-8.883V41.223c0-7.054,3.131-13.664,8.589-18.133c5.469-4.48,12.58-6.253,19.523-4.857 c76.909,15.458,133.481,78.224,137.463,150.985c-3.446,0.509-6.843,1.298-10.158,2.382c-0.705,0.229-1.71,0.602-3.168,1.171 c-10.11,3.955-16.642,13.535-16.642,24.406v15.775v88.939c0,4.906,3.976,8.883,8.883,8.883s8.883-3.977,8.883-8.883v-12.765 c4.026,1.469,8.193,2.514,12.436,3.127V294.521z M483.955,232.359c-0.808,22.516-19.039,41.263-41.506,42.681 c-8.129,0.51-16.217-1.191-23.381-4.929c-0.269-0.14-0.54-0.264-0.815-0.374v-47.901h21.318c4.898,0,8.883,3.984,8.883,8.883 c0,4.906,3.976,8.883,8.883,8.883s8.883-3.977,8.883-8.883c0-14.694-11.955-26.648-26.648-26.648h-21.318v-6.893 c0-3.451,2.15-6.61,5.351-7.862c1.538-0.602,2.071-0.783,2.205-0.827c4.431-1.448,9.061-2.183,13.762-2.183 c12.164,0,23.518,4.823,31.967,13.58C479.981,208.636,484.392,220.169,483.955,232.359z"></path> </g> </g> </g></svg>